<?xml version="1.0" standalone="no"?>
<!DOCTYPE svg PUBLIC "-//W3C//DTD SVG 20010904//EN"
 "http://www.w3.org/TR/2001/REC-SVG-20010904/DTD/svg10.dtd">
<svg version="1.0" xmlns="http://www.w3.org/2000/svg"
 width="700.000000pt" height="700.000000pt" viewBox="0 0 700.000000 700.000000"
 preserveAspectRatio="xMidYMid meet">
<metadata>
Created by potrace 1.14, written by Peter Selinger 2001-2017
</metadata>
<g transform="translate(0.000000,700.000000) scale(0.100000,-0.100000)"
fill="#000000" stroke="none">
<path d="M210 3500 l0 -3290 3290 0 3290 0 0 3290 0 3290 -3290 0 -3290 0 0
-3290z m6300 1575 l0 -1435 -1435 0 -1435 0 0 1435 0 1435 1435 0 1435 0 0
-1435z m-3150 -3150 l0 -1435 -1435 0 -1435 0 0 1435 0 1435 1435 0 1435 0 0
-1435z m3150 0 l0 -1435 -1435 0 -1435 0 0 1435 0 1435 1435 0 1435 0 0 -1435z"/>
<path d="M1734 3046 c-97 -19 -171 -41 -246 -75 -257 -116 -396 -391 -333
-660 23 -95 69 -173 145 -244 128 -120 225 -160 640 -267 391 -101 443 -121
532 -210 68 -69 94 -138 85 -231 -14 -159 -136 -282 -332 -335 -99 -27 -302
-30 -416 -6 -170 35 -312 118 -384 225 -35 51 -85 187 -85 230 0 43 -8 45
-130 35 -171 -13 -162 -9 -154 -71 28 -238 135 -421 317 -546 119 -81 286
-133 494 -152 457 -41 811 127 934 445 61 158 55 344 -17 487 -39 79 -110 155
-197 212 -132 88 -225 121 -582 207 -405 97 -512 148 -562 269 -22 52 -20 158
4 213 65 145 203 215 448 225 340 14 539 -110 588 -366 l12 -63 75 6 c41 4
106 9 143 13 l68 6 -6 46 c-24 172 -78 286 -189 396 -97 96 -198 151 -352 191
-82 21 -127 27 -264 30 -112 2 -188 -1 -236 -10z"/>
</g>
</svg>
